<svg width="320" height="320" viewBox="0 0 320 320" fill="none" xmlns="http://www.w3.org/2000/svg">
  <rect width="320" height="320" rx="64" fill="#FFF0EC"/>
  <path d="M160 51C177 64 187 79 192 100C209 88 227 84 249 88C240 107 227 119 208 127C224 138 233 155 234 176C213 170 197 160 186 146C181 165 171 182 154 194C145 176 143 158 148 138C129 148 111 151 92 146C98 128 109 115 126 106C108 99 95 86 88 67C109 67 127 73 143 85C147 67 153 57 160 51Z" fill="#FFC8BC"/>
  <circle cx="161" cy="160" r="63" fill="#FFFDFC"/>
  <rect x="118" y="137" width="32" height="20" rx="10" fill="#6C3B34"/>
  <rect x="171" y="137" width="32" height="20" rx="10" fill="#6C3B34"/>
  <path d="M150 146H171" stroke="#6C3B34" stroke-width="8" stroke-linecap="round"/>
  <path d="M135 182C152 174 169 174 186 182" stroke="#6C3B34" stroke-width="8" stroke-linecap="round"/>
  <path d="M118 179C131 194 154 204 160 204C166 204 188 194 202 179V192C202 210 183 224 160 224C137 224 118 210 118 192V179Z" fill="#A0D7F4"/>
  <path d="M56 153C83 138 105 133 131 136" stroke="#E06750" stroke-width="9" stroke-linecap="round"/>
  <path d="M74 188C99 172 120 167 146 168" stroke="#E06750" stroke-width="9" stroke-linecap="round"/>
  <path d="M210 101C228 86 247 79 271 79" stroke="#E06750" stroke-width="9" stroke-linecap="round"/>
  <path d="M222 132C239 121 255 117 275 118" stroke="#E06750" stroke-width="9" stroke-linecap="round"/>
  <text x="160" y="278" text-anchor="middle" font-family="Arial, sans-serif" font-size="28" font-weight="700" fill="#9A3827">高风险</text>
</svg>
