<svg width="320" height="320" viewBox="0 0 320 320" fill="none" xmlns="http://www.w3.org/2000/svg">
  <rect width="320" height="320" rx="64" fill="#FFF8E7"/>
  <path d="M160 55C176 66 185 80 190 99C206 88 223 84 243 88C236 104 225 115 208 122C223 133 231 148 233 168C214 163 198 155 186 142C182 161 172 178 156 191C147 174 145 156 149 137C132 146 115 150 97 147C102 131 112 119 127 110C111 103 99 92 92 75C109 74 126 79 142 89C145 73 151 62 160 55Z" fill="#FFE0A6"/>
  <circle cx="161" cy="160" r="62" fill="#FFFDF7"/>
  <circle cx="139" cy="150" r="6" fill="#6B4E18"/>
  <circle cx="184" cy="150" r="6" fill="#6B4E18"/>
  <path d="M141 183C153 172 170 172 182 183" stroke="#6B4E18" stroke-width="8" stroke-linecap="round"/>
  <path d="M71 144C88 136 101 135 119 141" stroke="#E5A328" stroke-width="8" stroke-linecap="round"/>
  <path d="M83 174C103 163 118 161 139 166" stroke="#E5A328" stroke-width="8" stroke-linecap="round"/>
  <path d="M214 103C229 93 243 90 261 92" stroke="#E5A328" stroke-width="8" stroke-linecap="round"/>
  <ellipse cx="126" cy="171" rx="10" ry="7" fill="#FFD4C2"/>
  <ellipse cx="196" cy="171" rx="10" ry="7" fill="#FFD4C2"/>
  <text x="160" y="278" text-anchor="middle" font-family="Arial, sans-serif" font-size="28" font-weight="700" fill="#7A5712">中风险</text>
</svg>
