<svg width="320" height="320" viewBox="0 0 320 320" fill="none" xmlns="http://www.w3.org/2000/svg">
  <rect width="320" height="320" rx="64" fill="#F4FFF4"/>
  <path d="M163 63C180 76 188 88 191 105C208 94 224 92 242 99C233 113 220 121 203 125C215 136 222 151 223 170C206 165 193 157 183 144C177 162 167 176 152 186C145 169 144 153 149 136C133 145 118 149 100 146C106 130 116 120 131 113C114 106 102 95 95 79C112 78 127 82 141 91C145 77 151 67 163 63Z" fill="#D8F3D7"/>
  <circle cx="161" cy="160" r="61" fill="#FCFFFC"/>
  <circle cx="140" cy="152" r="6" fill="#315441"/>
  <circle cx="183" cy="152" r="6" fill="#315441"/>
  <path d="M143 183C155 194 168 194 180 183" stroke="#315441" stroke-width="8" stroke-linecap="round"/>
  <ellipse cx="126" cy="169" rx="10" ry="7" fill="#FFD7D7"/>
  <ellipse cx="196" cy="169" rx="10" ry="7" fill="#FFD7D7"/>
  <path d="M228 65C246 72 258 82 264 96" stroke="#79BF78" stroke-width="8" stroke-linecap="round"/>
  <path d="M253 55C265 58 274 63 282 72" stroke="#79BF78" stroke-width="8" stroke-linecap="round"/>
  <text x="160" y="278" text-anchor="middle" font-family="Arial, sans-serif" font-size="28" font-weight="700" fill="#315441">低风险</text>
</svg>
